<?xml version="1.0" encoding="UTF-8"?>
<!DOCTYPE svg PUBLIC "-//W3C//DTD SVG 1.1//EN" "http://www.w3.org/Graphics/SVG/1.1/DTD/svg11.dtd">
<!-- Creator: CorelDRAW -->
<svg xmlns="http://www.w3.org/2000/svg" xml:space="preserve" width="468.851mm" height="169.888mm" version="1.1" style="shape-rendering:geometricPrecision; text-rendering:geometricPrecision; image-rendering:optimizeQuality; fill-rule:evenodd; clip-rule:evenodd"
viewBox="0 0 19756.26 7158.68"
 xmlns:xlink="http://www.w3.org/1999/xlink"
 xmlns:xodm="http://www.corel.com/coreldraw/odm/2003">
 <defs>
  <style type="text/css">
   <![CDATA[
    .fil0 {fill:aqua}
    .fil1 {fill:fuchsia}
    .fil2 {fill:#FFB000}
   ]]>
  </style>
 </defs>
 <g id="Camada_x0020_1">
  <metadata id="CorelCorpID_0Corel-Layer"/>
  <path class="fil0" d="M722.99 1891.98l182.27 394.88c-275.85,-389.42 -549.93,-776.92 -822.22,-1162.49 -42.67,-13.31 -64,-19.96 -64,-19.96 -12.69,-90.04 -19.04,-135.06 -19.04,-135.06l83.12 69.25 3.32 23.55 16.96 5.28 -4.09 51.35c75.92,71.57 148.02,137.28 216.31,197.14 135.36,191.55 271.15,383.57 407.38,576.06zm354.74 -172.71c15.83,-26.4 24.54,-65.09 26.15,-116.05 0.4,-6.36 0.74,-12.73 1.02,-19.09l3.36 -26.01 -2.49 -2.55c3.53,-208.41 -56.05,-414.01 -178.74,-616.8 -68.52,-25.88 -102.78,-38.8 -102.78,-38.8 -23.74,-147.81 -35.6,-221.71 -35.6,-221.71l86.27 75.46 16.7 103.98 62.68 23.66 -11.36 53.36c55.25,85.58 115.13,165.56 179.62,239.96 40.63,127.68 56.87,256.44 48.7,386.28 -3.18,101.11 -34.36,153.88 -93.53,158.32zm604.49 -215.44c15.82,-19.93 29.45,-46.68 40.85,-80.32 69.81,-211.03 114.47,-438.5 133.97,-682.41 -103.96,-98.34 -155.95,-147.49 -155.95,-147.49 0,0 46.84,-173.1 140.54,-519.31l35.24 76.39 -108.43 400.66c0,0 51.99,49.16 155.95,147.49 -19.5,243.91 -64.15,471.38 -133.96,682.41 -25.25,74.45 -61.32,115.3 -108.22,122.59zm741.39 -66.97c16.35,-15.38 32.83,-34.5 49.43,-57.43 160.89,-176.39 294.23,-378.84 400,-607.34 -24.59,-75.25 -36.89,-112.87 -36.89,-112.87 0,0 46.85,-56.35 140.56,-169.03l0.79 37.78 -73.98 88.97c0,0 12.3,37.62 36.89,112.87 -3.33,7.19 -6.68,14.36 -10.07,21.49l-44.59 26.98c-19.11,49.68 -34.97,99.47 -47.56,149.39 -85.72,149.3 -184.97,285.79 -297.79,409.48 -39.67,54.75 -78.6,87.96 -116.8,99.7zm557.9 -718.02l0.03 1.49 -29.17 17.66 0.74 -1.96 28.4 -17.19zm89.31 813.79c199.64,-154.46 419.94,-395.28 660.91,-722.44 -10.67,-43.91 -15.99,-65.87 -15.99,-65.87 0,0 32.55,-34.25 97.66,-102.74l-1.9 30.61 -28.39 29.87c0,0 5.33,21.95 15.99,65.87 -7.8,10.58 -15.57,21.08 -23.33,31.49l-29.64 17.06 -27.7 58.75c-220.32,286.88 -422.67,498.71 -607.06,635.48 -14.17,8.82 -27.68,16.12 -40.54,21.93zm214.44 261.41l-119.38 253.21 131.34 -532.69c23.79,-19.62 48.1,-41.27 72.96,-64.93l-84.92 344.41zm-117.34 -189.87c-120.27,84.41 -225.82,112.72 -316.63,84.87 -86.15,-40.53 -138.52,-154.96 -157.1,-343.27 20.88,-27 42.08,-56.49 63.58,-88.51 14.27,215.95 67.9,345.79 160.9,389.53 73.44,22.51 156.52,8.3 249.25,-42.62zm-686.67 -64.76c-76.24,58.54 -147.73,78.33 -214.46,59.33 -128.71,-54.63 -228.61,-191.74 -299.71,-411.32 11.14,-55.44 20.68,-116.11 28.6,-182.06 71.5,301.99 184.34,485.7 338.48,551.13 46.7,13.3 95.74,7.61 147.09,-17.07zm-750.54 73.28c-23.4,21 -48.61,36.12 -75.63,45.29 -96.77,24.05 -218.96,-29.96 -366.56,-161.99 0.53,-33.52 -0.23,-69.66 -2.26,-108.42 179.2,179.84 324.6,255.89 436.2,228.15 2.77,-0.94 5.52,-1.97 8.25,-3.03zm-578.98 204.06c-14.1,15.88 -30.34,27.37 -48.73,34.46 -88.73,41.84 -200.25,25.51 -334.53,-48.95l-56.68 -122.79 0 0c180.8,132.96 327.44,178.71 439.94,137.28zm1874.15 -574.19l-3.56 65.61 -57.54 87.48c15.81,55.24 23.72,82.86 23.72,82.86l27.67 -57.21 -4.56 83.78 -57.16 29.99c-1.95,-1.32 -3.86,-2.73 -5.73,-4.23l4.1 -75.63 -25.32 52.36c-12.29,-17.87 -22.08,-41.48 -29.35,-70.79l127.74 -194.2 0.01 0zm-737.1 143.1l18.31 -90.13 -17.85 -26.06 -0.02 0.01 37.88 -247.45 -42.81 -118.27 -59.43 388.16c21.05,38.78 42.35,70.03 63.91,93.74zm67.65 -43.57l17.14 48.06 61.54 -58.66 -48.76 -136.66 -29.92 147.26zm-730.49 119.33l47.77 -99.7 -33.88 -99.14 -34.09 139.69 20.22 59.17 -0.01 -0.01zm-45.76 -366.51l-41.65 -113.01 -68.93 416.02c22.22,17.28 44.82,34.09 67.82,50.43l15.82 -64.85 -18.85 -12.23 45.79 -276.36zm-598.96 534.17c32.87,34.28 49.3,51.42 49.3,51.42l4.22 -32.69 -34.78 -9.7 -25.32 -105.61 -102.78 -105.35 59.05 246.29c11.36,5.65 22.45,10.9 33.28,15.75l36.78 10.26c-13.16,-46.91 -19.74,-70.36 -19.74,-70.36l-0.01 -0.01z"/>
  <path class="fil1" d="M843.45 1764.17l206.96 448.39c-88.82,-125.38 -177.45,-250.57 -265.9,-375.56l-72.71 -157.52 0 0c46.1,33.91 89.98,62.12 131.64,84.69zm-452.25 -483.36c-54.4,-76.99 -108.74,-153.9 -163,-230.74l-57.95 -18.08 1.44 -18.02 -11.05 -9.21 -15.47 -109.72c69.53,57.93 104.29,86.89 104.29,86.89 0,0 -1.66,20.85 -4.98,62.54 319.19,300.88 570.93,498.34 755.22,592.39l0.29 1.23 4.82 1.35c28.44,14.32 55.28,26.16 80.46,35.48 19.35,7.05 36.98,11.14 52.91,12.28 -27.08,35.04 -70.64,41.64 -130.68,19.75 -148.67,-55.02 -354.11,-197.09 -616.29,-426.16zm809.95 -135.58c-29.72,-94.18 -72.7,-187.77 -128.97,-280.76l-51.74 -19.54 11.69 -54.93 -79.64 -69.65 -18.69 -116.4c117.4,102.68 176.1,154.02 176.1,154.02 -14.53,68.29 -21.8,102.44 -21.8,102.44 125.65,194.61 275.18,360.31 448.59,497.11l-2.28 13.76c45.41,29.46 68.13,44.19 68.13,44.19l1.71 -6.99c3.97,2.87 7.95,5.72 11.95,8.55 46.67,35.74 87.82,54.35 123.46,55.86 -48.5,49.7 -115.57,41.76 -201.23,-23.84 -123.61,-87.73 -236.03,-189.01 -337.27,-303.83zm751.4 -1018.81l34.22 -126.42c0,0 75.27,163.14 225.81,489.39 0,0 -41.51,57.26 -124.52,171.78 47.84,174.55 116.32,367.99 205.47,580.35l-4.29 27.98 0.02 -0.01c42.13,61.5 63.2,92.26 63.2,92.26l4.02 -19.76c38.22,46.38 77.25,68.93 117.09,67.63 -88.95,69.46 -174.05,26.11 -255.29,-130.09 -90.38,-214.7 -159.69,-410.13 -207.98,-586.32 83.02,-114.53 124.53,-171.78 124.53,-171.78l-182.27 -394.99zm942.28 805.37c44.61,-74.7 85.73,-152.69 123.36,-233.99l-0.32 -0.96 31.04 -18.78 -3.57 -170.13 76.52 -92.02c3.22,153.43 4.82,230.13 4.82,230.13 -63.86,38.65 -95.79,57.97 -95.79,57.97 -86.43,224.66 -106.2,451.76 -59.3,681.3l-6.81 10.35c15.81,55.24 23.72,82.86 23.72,82.86l8.23 -17.03c5.77,10.77 12.22,19.97 19.35,27.63l-0.37 6.89 4.74 -2.49c21.85,20.78 49.63,28.04 83.32,21.77 -112.64,66.88 -182.34,35.71 -209.06,-93.57 -34.22,-164.58 -34.18,-327.89 0.11,-489.95zm862.64 -38.69c39.22,-49.98 79.02,-102.37 119.41,-157.2l-3.66 -15.06 4.24 -68.25 81.08 -85.31c-5.86,94.15 -8.78,141.23 -8.78,141.23 -38.99,22.45 -58.5,33.67 -58.5,33.67 -386.82,820.53 -580.24,1230.8 -580.24,1230.8l68.71 -278.66 377.73 -801.22zm-398.61 602.53c-73.3,58.21 -141.44,96.79 -204.44,115.75 66.82,-34.46 138.74,-88.36 215.78,-161.73l-11.34 45.98zm-595.07 -171.39c-92.08,116.59 -178.15,183.96 -258.18,202.16 78.74,-46.32 162.8,-136.01 252.17,-269.12 1.54,23.33 3.55,45.65 6.01,66.97zm-721.59 -155.85c-49.85,239.03 -130.5,377.49 -241.97,415.33 -7.84,1.95 -15.84,3.36 -24.01,4.29 108.95,-77.35 182.11,-271.53 219.48,-582.62 13.93,58.83 29.43,113.15 46.5,163.01zm-675.9 294.58c-2.66,179.99 -42.05,284.66 -118.15,313.98 -15.98,7.54 -32.71,13.18 -50.17,16.94 70.36,-51.45 99.79,-186.89 88.3,-406.3 27.47,27.57 54.14,52.69 80.03,75.38zm1804.75 -294.68c-9.51,175.01 -14.27,262.51 -14.27,262.51 0,0 -21.1,11.07 -63.3,33.2 0,0 1.5,-27.69 4.5,-83.08l-16.35 33.8 6.55 -120.47 82.86 -125.97 0.01 0zm-795.79 81.22l54.96 80.22 1.55 -7.6 -45.41 -127.26 -11.1 54.64zm87.65 -80.69l1.22 -5.99c0,0 18.21,51.01 54.61,153.05 0,0 21.51,-20.49 64.51,-61.5 0,0 -51.26,-141.63 -153.78,-424.9l-26.56 173.51 60.01 165.82zm-691.8 218.32l49.35 -103.03 0.87 -3 -137.64 -373.48 -27.78 167.67 59.91 162.57 1.78 -7.29c35.68,104.39 53.51,156.58 53.51,156.58l0 -0zm-151.21 -42.86l60.38 39.17 0.35 -1.45 -40.8 -119.4 -19.94 81.68zm-493.52 210.53l42.12 43.92c1.41,-11.74 2.34,-24.32 2.76,-37.77 1.01,-16.03 1.63,-32.05 1.9,-48.05l-156.14 -160.03 35.52 148.14 55.72 57.11 -7.04 54.52 44.91 12.53c-13.16,-46.91 -19.74,-70.36 -19.74,-70.36l-0.01 -0.02z"/>
  <path class="fil0" d="M2293.1 2504.03c67.08,10.64 123.33,41.8 149.46,90.49 60.48,112.65 33.25,606.09 33.25,769.78 0,978.32 105.49,1030.13 -473.93,1032.88l0 0.16c699.69,0 581.47,1.92 581.47,-1033.04 0,-163.69 27.23,-657.13 -33.25,-769.78 -39.34,-73.28 -146.91,-106.87 -257,-90.49zm-892.11 190.93c12.56,421.3 -18.22,3373.12 8.37,3434.2l38.87 42.85c39.61,3.65 97.38,4.57 159.87,2.99 -19.57,-0.61 -37.27,-1.6 -52.32,-2.99l-38.87 -42.85c-26.58,-61.08 4.19,-3012.9 -8.37,-3434.2l0 -0.01c-5.46,-182.89 -42.09,-251.65 -229.59,-255.98 2.04,-244.41 152.61,-332.2 298.03,-348.55 -166.64,-18.24 -403.02,41.89 -405.57,348.55 187.5,4.32 224.13,73.08 229.59,255.98l0 0.01zm604.42 2117.12l134.11 3.43c21.38,173.59 168.39,1110.34 221.31,1205.7 66.71,120.19 229.24,208.94 411.49,187.77 -136.53,-16.02 -250.73,-91.89 -303.95,-187.77 -52.92,-95.36 -199.93,-1032.11 -221.31,-1205.7l-241.45 -6.18 -0.2 2.75zm1081.42 925.79l-1.43 -13.83c-24.07,4.72 -46.18,8.2 -66.6,10.57 19.7,3.28 42.21,4.42 68.03,3.27zm-666 -3645.92c-88.56,-5.69 -178.04,2.15 -254.73,26.97 -69.07,22.35 -105.45,36.17 -166.07,70.76 -30.2,17.23 -52.24,34.76 -74.82,51.43 8.79,13.33 19.41,27.96 33.87,44.43 61.57,-27.35 89.45,-62.19 148.49,-95.86 60.62,-34.59 97,-48.4 166.07,-70.76 45.52,-14.73 95.54,-23.47 147.19,-26.97zm3771.26 993.58c-2.37,109.66 30.57,267.74 34.42,397.69 15.07,509.52 2.73,1152.23 2.73,1679.77 0,214.13 28.81,280.35 -57.96,365.64 -46.95,46.14 -118.84,100.97 -205.19,118.37 7.15,1.73 14.74,3.06 22.84,3.96 123.77,13.71 228.29,-61.8 289.89,-122.33 86.77,-85.28 57.96,-151.51 57.96,-365.64 0,-527.54 12.35,-1170.25 -2.73,-1679.77 -3.85,-129.95 -36.79,-288.02 -34.42,-397.69l0 -0.01c122.87,-10.39 216.4,-19.31 287.61,-23.01 -74.69,-6.73 -196.73,6.24 -395.15,23.01l-0 0.01zm-730.66 -58.15c-183.61,-20.48 -400.11,60.72 -405.6,322.04l63.84 17.85c141.01,25.65 158.1,89.11 160.11,264.14l-0.08 1501.83c0,382.28 -34.83,597.66 192.44,823.27 91.37,90.7 253.47,129.26 407.24,117.52 -117.74,-9.01 -229.56,-47.9 -299.7,-117.52 -227.27,-225.61 -192.44,-440.99 -192.44,-823.27l0.08 -1501.83c-2.02,-175.02 -19.11,-238.48 -160.11,-264.14l-63.84 -17.85c4.43,-211.21 146.71,-304.74 298.06,-322.04zm767.81 2977.32c-0.01,125.74 -0.03,251.48 0,377.23 0.03,155.61 17.6,293 -103.29,349.43 -27.4,12.79 -61.82,21.46 -98.65,25.74 72.7,8.51 152.78,-0.81 206.19,-25.74 120.89,-56.43 103.32,-193.82 103.29,-349.43 -0.03,-149.89 0,-299.76 0,-449.64 -59.69,25.25 -54.06,41.97 -107.54,72.41zm-603.73 291.94c-316.74,-13.53 -384.61,73.4 -341.53,442.79 36.7,314.71 383.35,432.58 717.18,418.04 -297.13,-13.06 -576.88,-137.11 -609.64,-418.04 -37.69,-323.14 9.53,-430.12 233.99,-442.79zm5445.81 -1612.56c-149.57,-9.67 -326.7,19.64 -379.15,117.7 -33.71,63.03 -16.41,522.24 -16.41,628.77 0,207.55 -7.89,392.41 113.03,517.55 195.09,201.9 466.64,272.04 719.18,260.03 -219.96,-10.4 -444.02,-86.56 -611.64,-260.03 -120.92,-125.14 -113.03,-310 -113.03,-517.55 0,-106.54 -17.3,-565.74 16.41,-628.77 40.19,-75.12 153.54,-109.89 271.61,-117.7zm444.97 -2244.66c21.63,2.8 42.36,7.15 61.45,12.79 213.8,63.08 183.18,211 183.18,451.27 0,205.87 -15.61,428.18 -12.97,624.34 52.13,25.54 131.6,33.25 211.91,26.29 -39.98,-3.89 -76.18,-12.47 -104.37,-26.29 -2.64,-196.16 12.97,-418.47 12.97,-624.34 0,-240.27 30.62,-388.19 -183.18,-451.27 -49.6,-14.63 -110.22,-20.79 -168.98,-12.79zm28.23 -410.4c-301.73,-13.11 -616.48,85.2 -744.41,280.41 -114.06,174.03 -113.19,279.24 -113.12,519.73 0.06,213.06 -0.55,426.16 -0.09,639.21 1.04,489.39 196.43,554.14 504.92,753.02 445.68,287.31 582.44,292.13 582.19,703.76 -0.12,193.85 14.83,454.21 -1.58,639.89 -12.41,140.46 -120.06,212.67 -240.8,228.78 156.97,20.45 332.28,-47.12 348.34,-228.78 16.41,-185.68 1.46,-446.05 1.58,-639.89 0.25,-411.63 -136.51,-416.45 -582.19,-703.76 -308.49,-198.88 -503.88,-263.63 -504.92,-753.02 -0.46,-213.05 0.16,-426.15 0.09,-639.21 -0.07,-240.48 -0.94,-345.69 113.12,-519.73 112.76,-172.06 370.68,-268.85 636.87,-280.41zm2279.02 4153.92c71.41,28.35 143.28,35.44 209.35,26.65 -33.59,-4.44 -67.75,-13.13 -101.81,-26.65l-0 0c-221.63,-88 -195.12,-414.34 -195.12,-678.06 0,-584.67 -0.9,-1169.43 0.03,-1754.09 0.26,-162.01 1.72,-257.05 -146.08,-288.34 -41.16,-8.71 -79.16,-8.26 -113.74,-1.24 2.06,0.39 4.13,0.8 6.2,1.24 147.8,31.29 146.34,126.33 146.08,288.34 -0.93,584.66 -0.03,1169.42 -0.03,1754.09 0,263.72 -26.51,590.06 195.12,678.06l0 0zm-192.96 -3154.43c-35.51,-3.32 -72.46,-3.32 -110.68,0.26 -114.32,10.72 -194.68,46.81 -266.08,88.79 1.25,23.61 2.8,45.25 4.72,64.54 102.74,-64.42 197.8,-137.28 368.9,-153.33l3.14 -0.26zm-591.58 -1231.77c-143.55,-22.14 -291.47,56.86 -414.03,90.23 26.66,267.62 53.96,150.21 53.95,570.56 0,420.07 -12.75,3579.84 6.3,3647.16 19.12,67.57 121.04,78.45 231.34,70.51 -62.94,-6.2 -111.24,-26.12 -123.8,-70.51 -19.05,-67.33 -6.3,-3227.09 -6.3,-3647.16 0.01,-420.34 -27.29,-302.93 -53.95,-570.56 92.05,-25.06 198.41,-75.87 306.48,-90.23zm-4992.21 3076.96l1.7 631.18c0,116.31 -121.39,240.65 -244.76,271.48 147.89,43.98 352.3,-120.55 352.3,-271.48l-1.87 -693.5c-19.7,8.07 -60.38,32.25 -107.37,62.32zm-198.86 -1448.95c6.75,0.97 13.63,2.09 20.69,3.4 178.59,33.17 179.9,193.9 179.85,382.09 -0.05,182.99 0,365.96 0,548.94 -106.89,57.9 -206.02,125.78 -316.24,188.07 -325.85,184.18 -642.36,345.07 -679.54,838.22 -35.9,476.2 198.78,856.53 624.76,820.81 -357.48,-31.73 -549.97,-386.36 -517.22,-820.81 37.18,-493.15 353.69,-654.04 679.54,-838.22 110.22,-62.3 209.35,-130.18 316.24,-188.07 0,-182.98 -0.05,-365.95 0,-548.94 0.05,-188.19 -1.26,-348.92 -179.85,-382.09 -50.23,-9.33 -92.53,-9.9 -128.23,-3.4zm263.72 2654.35c48.56,76.78 126,120.32 250.36,126.62 29.82,1.51 57.71,0.82 83.78,-1.72 -136.05,-12.81 -211.63,-74.5 -254.13,-179.06 -27.71,13.04 -52.18,32.58 -80.01,54.16zm-217.34 -3060.25c-211.99,-10.05 -424.66,42.15 -542.22,108.23 -250.45,140.77 -252.54,306.21 -252.54,668.31 0,156.42 -35.21,321.4 75.46,384.98 77.53,44.54 188.11,58.88 294.36,51.11 -69.53,-5.35 -135.43,-21.6 -186.81,-51.11 -110.67,-63.58 -75.46,-228.55 -75.46,-384.98 0,-362.1 2.09,-527.54 252.54,-668.31 97.6,-54.86 260.77,-100.18 434.68,-108.23zm-3722.95 397.88c64.14,16.62 112.83,61.34 139.96,104.37 56.86,90.18 40.96,204.51 40.95,318.86l0 1441.93c0,226.68 34.53,486.33 -184.04,531.17 32.25,7.08 68.04,7.98 106.6,0.21 219.63,-44.28 184.98,-304.36 184.98,-531.38l0 -1441.93c0.01,-114.35 15.91,-228.68 -40.95,-318.86 -40.76,-64.63 -130.15,-133.11 -247.5,-104.37zm-0.63 -394.33c-43.33,-1.8 -88.25,-1.37 -134.64,1.27 -332.82,18.98 -572.74,211.9 -622.91,519.76 -22.33,137.08 -10.3,940.57 -10.3,1143.85 0,780.09 -181.92,1552.6 737.89,1518.85 -797.48,-29.78 -630.35,-770.76 -630.35,-1518.85 0,-203.28 -12.03,-1006.77 10.3,-1143.85 50.17,-307.86 290.09,-500.78 622.91,-519.76 9.1,-0.52 18.11,-0.92 27.1,-1.27zm11146.69 394.42c84.8,19.57 158.22,85.29 177.56,187.4 20.23,106.86 6.18,1232.43 6.18,1439.82 0,167.58 31.49,550.79 -44.54,672.09 -33.18,52.95 -83.02,84.54 -137.19,96.82 90.04,19.78 190.02,-9.51 244.73,-96.82 76.02,-121.3 44.54,-504.51 44.54,-672.09 0,-207.38 14.05,-1332.96 -6.18,-1439.82 -27.3,-144.15 -162.36,-215.81 -285.1,-187.4zm-180.29 -387.54c-691.7,108.36 -585.36,641.42 -585.36,1137.71 0,352.19 -29.85,1479.47 43.65,1675.54 97.38,259.77 404.18,387.66 703.37,370.3 -262.18,-15.21 -510.12,-141.67 -595.83,-370.3 -73.5,-196.07 -43.65,-1323.35 -43.65,-1675.54 0,-496.29 -106.34,-1029.35 585.36,-1137.71l0 0c32.86,-5.15 65.99,-8.64 99.12,-10.48 -68.43,-3.89 -138.11,-0.26 -206.66,10.48l-0 -0zm1980.93 396.43c54.01,9.65 102.26,33.76 137.49,68.69 131.47,130.32 75.73,475.49 -2.63,643.43 -55.23,118.38 -189.04,205.02 -305.58,285.82 1.58,26.23 3.61,51.31 6.16,74.92l-0.01 -0.01c126.52,-104.59 334.46,-205.31 406.98,-360.73 78.36,-167.94 134.09,-513.11 2.63,-643.43 -57.51,-57.02 -149.75,-85.23 -245.03,-68.69zm19.49 -411.2c-298.14,-15.44 -608.71,98.64 -716.84,336.32 -72.78,159.98 -50.64,420.3 -50.64,608.04 0,441 0,882.01 0,1323 0,366.04 -55.81,777.19 430.61,896.78 105.42,25.92 216.12,35.93 323.68,30.92 -72.73,-3.38 -145.61,-13.58 -216.14,-30.92 -486.42,-119.59 -430.61,-530.74 -430.61,-896.78 0,-441 0,-882 0,-1323 0,-187.74 -22.15,-448.06 50.64,-608.04 95.15,-209.15 347.05,-322.61 609.3,-336.32zm401.64 2048.04c-79.52,-5.22 -163.11,2.64 -226.7,13.71 18.37,268.78 98.77,681.3 -173.33,725.49 398.85,51.9 301.34,-426.03 280.87,-725.49 35,-6.09 76.06,-11.21 119.17,-13.71zm1337.3 -1636.58c267.96,39.57 181.65,442.39 174.05,679.33 85.62,11.06 163.19,19.76 234.3,13.53 -40.25,-2.72 -82.43,-7.81 -126.76,-13.53 7.77,-242.39 97.98,-658.44 -193.04,-681.55 -32.16,-2.56 -61.72,-1.8 -88.55,2.22zm12.09 -406.15c-191.55,-8.86 -381.96,30.93 -499.47,99.15 -173.82,100.9 -277.37,282.67 -276.92,572.33 1.29,818.8 -14.41,732.34 602.49,1108.95 230.98,141.01 351.91,154.62 351.4,511.36 -0.19,129.37 32.1,450.96 -181.07,494.22 330.56,52.67 288.4,-346.33 288.61,-494.22 0.51,-356.74 -120.42,-370.35 -351.4,-511.36 -616.9,-376.61 -601.2,-290.16 -602.49,-1108.95 -0.46,-289.66 103.1,-471.43 276.92,-572.33 95.4,-55.38 238.84,-92.05 391.93,-99.15zm-419.96 2078.71c-92.29,-5.65 -181.52,0.57 -262.75,37.26 -132.77,59.96 -101.31,161.45 -101.31,324.46 0,236.38 -29.01,490.21 235.29,636.44 143.98,79.66 347.73,120.59 544.54,111.66 -161.32,-7.22 -319.17,-46.47 -437,-111.66 -264.3,-146.23 -235.29,-400.06 -235.29,-636.44 0,-163.01 -31.46,-264.49 101.31,-324.46 49.17,-22.21 101.27,-33.25 155.21,-37.26zm-9114.87 -3303.28c-142.84,-16.47 -342.92,42.15 -406.02,112.23 88.31,334.53 53.88,888.42 53.88,1263.54 0,441 0,882 0,1323 0,429.09 -18.24,899.58 2.6,1323.59 10.45,212.61 80.73,361.75 279.57,387.2 45.63,5.84 88.27,6.48 127.53,2.24 -6.6,-0.64 -13.26,-1.38 -19.99,-2.24 -198.85,-25.45 -269.12,-174.59 -279.57,-387.2 -20.85,-424.01 -2.6,-894.5 -2.6,-1323.59 0,-441 0,-882 0,-1323 0,-375.12 34.43,-929.02 -53.88,-1263.54 48.28,-53.63 176.79,-100.53 298.47,-112.23z"/>
  <path class="fil1" d="M2124.32 2661.96c65.65,-46.26 136.44,-119.97 251.76,-149.9 10.55,-2.74 21.15,-5 31.75,-6.8 -47.81,-8.74 -101.62,-6.86 -154.21,6.8 -115.31,29.92 -186.1,103.64 -251.76,149.9l0.01 0 0 1735.38c43.98,0 84.71,0.01 122.46,-0.24l0 -1735.14 -0.01 0zm7671.28 3298.45l10.84 -25.15c3.78,-18.46 2.7,-9.48 3.43,-27.66 1.35,-33.43 -3.98,-21.88 -8.48,-40.77l-73.4 -4.06c72.69,34.78 65.46,3.51 67.61,97.65zm-8071.65 214.37c123.16,4.5 327.96,-6.91 417.14,-30.7 13.37,-82.61 -36.2,-1033.71 -13.25,-1331.61l-122.23 -3.13c-23.53,294.39 26.43,1251.84 13.02,1334.74 -63.41,16.91 -185.27,27.57 -294.68,30.7zm1163.43 33.27c68.07,9.12 141.92,3.39 216.71,-22.26 256.16,-87.87 227.77,-301.47 211.32,-461.74 -47.28,9.26 -87.17,13.9 -120.99,14.26 16.4,158.45 35.85,362.2 -212.79,447.48 -31.7,10.88 -63.24,18.16 -94.24,22.26zm247.85 -474.5c-141.55,-27.6 -131.8,-172.75 -167.91,-386.11 -29.4,-173.68 -92.57,-481.33 -95.99,-641.48 201.53,-105.97 327.04,-273.1 327.04,-583.55l0 -1397.32c0,-318.37 -110.89,-533.17 -377.65,-605.29 -88.99,-24.06 -189.83,-34.67 -284.67,-27.33 55.73,4.07 110.94,13.46 162.2,27.33 266.76,72.11 377.65,286.92 377.65,605.29l0 1397.32c0,310.44 -125.52,477.57 -327.04,583.55 3.42,160.15 66.59,467.8 95.99,641.48 44.34,261.91 19.54,421.06 290.38,386.11zm-1092.41 -3499.94c-28.22,-44.37 -39.32,-74.37 -116.55,-112.01 -51.13,-24.92 -142.2,-42.21 -234.28,-30.3 44.84,5.6 84.18,16.83 111.82,30.3 103.86,50.63 88.1,87.42 155.27,163.94 34.76,-15.44 58.79,-33.27 83.74,-51.93zm4039.05 3411.6c-103.49,-30.03 -103.92,-150.71 -103.76,-274.12 0.76,-559.9 0.03,-1119.86 0.03,-1679.77 0,-249.05 33.1,-575.09 -202.71,-646.82 -60.74,-18.47 -130.96,-25.14 -198.91,-16.23 26.49,3.38 52.22,8.87 76.44,16.23 235.81,71.74 202.71,397.77 202.71,646.82 0,559.91 0.73,1119.87 -0.03,1679.77 -0.18,134.18 0.33,265.15 133.28,279.86 32.45,3.59 63.57,1.05 92.94,-5.74zm-87.58 428.21c107.38,9.41 220.33,-6.17 311.55,-46.11 11.86,-5.2 22.05,-10.03 30.94,-14.57l0 -80.44c-72.98,30.87 -48.29,48.99 -153.41,95.02 -56.8,24.87 -122.02,40.28 -189.08,46.11zm148.07 682.75c-62.68,-8.45 -118.92,-30.42 -146.34,-67.38 -56.74,-76.47 -18.87,-271.61 -14.13,-383.13 -96.53,-8.96 -175.79,-12.81 -240.15,-8.61 36.04,1.72 75.16,4.66 117.69,8.61 -4.74,111.52 -42.61,306.66 14.13,383.13 44.98,60.63 167.45,80.93 268.8,67.38zm-26.3 400.92c250.88,12.64 515.55,-54.25 655.42,-173.13 183.95,-156.36 156.17,-467.09 156.17,-765.55l0 -2764.92c0,-347.68 53.45,-406.4 -227.4,-390.46 140.72,14.99 104.93,106.04 104.93,390.46l0 2764.92c0,298.46 27.78,609.19 -156.17,765.55 -117.2,99.61 -322.04,162.71 -532.96,173.13zm5299.01 -2456.86c-64.46,-15.11 -147.97,-21.74 -228.61,-15.62 38.24,2.83 74.49,8.2 106.14,15.62 -6.91,131.89 -42.77,830.51 0.72,939.44 46.81,117.26 210.54,175.02 353.35,153.12 -103.23,-15.33 -197.25,-68.85 -230.88,-153.12 -43.49,-108.93 -7.62,-807.55 -0.72,-939.44zm207.64 1507.51c329.26,17.88 650.93,-112.34 762.15,-285.4 113.94,-177.29 113.58,-278.95 113.5,-521.5 -0.06,-213.06 0.54,-426.16 0.08,-639.21 -1.06,-494.23 -195.62,-551.05 -503.17,-756.62 -167.51,-111.97 -488.8,-278.04 -548.17,-403.69 -40.46,-85.62 -35.87,-194.26 -35.77,-296.46 0.19,-200.26 -10.26,-428 0.75,-624.77 8.68,-154.97 109.91,-222.43 219.47,-239.58 -142.97,-21.17 -330,26.43 -341.93,239.58 -11.02,196.77 -0.56,424.5 -0.75,624.77 -0.1,102.2 -4.69,210.84 35.77,296.46 59.37,125.65 380.65,291.73 548.17,403.69 307.55,205.57 502.11,262.39 503.17,756.62 0.46,213.05 -0.14,426.15 -0.08,639.21 0.08,242.55 0.44,344.21 -113.5,521.5 -97.34,151.48 -355.92,270.13 -639.68,285.4zm452.65 -2654.35c140.44,15.77 331.98,-28.32 386.74,-110.12 43.95,-65.65 23.27,-500.25 23.27,-614.1 0,-245.41 17.55,-360.5 -103.68,-533.18 -137.64,-196.07 -435.42,-280.72 -722.09,-266.56 245.65,12.19 481.57,98.38 599.63,266.56 121.23,172.68 103.68,287.77 103.68,533.18 0,113.85 20.68,548.45 -23.27,614.1 -39.83,59.49 -152.02,99.04 -264.28,110.12zm2072.65 2655.14c239.31,36 452.18,-144.88 394.38,-335.82 -220.31,-25.95 -215.8,-95.23 -215.67,-323.22 0.19,-330.69 13.6,-1908.98 -10.29,-2065.68 -44.55,-292.08 -267.33,-483.09 -566.5,-455.02l-4.65 0.46c238.77,25.45 410.21,202.29 448.69,454.56 23.9,156.71 10.48,1734.99 10.29,2065.68 -0.13,227.99 -4.64,297.27 215.67,323.22 47.64,157.36 -88.58,307.88 -271.91,335.82zm-772.13 -3099.31c-17.03,-347.77 29.53,-1103.88 -9.73,-1279.82 -69.37,-37.6 -141.48,-42.14 -212.71,-31.5 30.39,5.39 60.57,15.42 90.25,31.5 42.29,189.53 -15.03,1052.43 14.87,1352.73 38.71,-24.27 76.32,-49.73 117.32,-72.91zm-343.02 3065.34c121.17,13.92 301,-26.05 381.63,-39.63 6.29,-71.39 -31.22,-281.85 -34.14,-392.18l-3.08 -1308.14c0,-171.7 -35.81,-745.31 34.61,-844.85 39,-55.14 99.9,-108.45 179.51,-126.96l-1.47 -0.33c-140.16,-29.67 -243.62,46.86 -300.5,127.29 -70.42,99.54 -34.61,673.15 -34.61,844.85l3.08 1308.14c2.92,110.33 40.43,320.79 34.14,392.18 -56.09,9.45 -160.2,31.67 -259.17,39.63zm-5256.12 -714.26c0,-179.89 61.66,-339.18 156.65,-421.3 32.13,-27.77 134.3,-99.54 220.97,-155.69l-0.19 -71.91c-57.23,23.43 -291.39,182.79 -343.24,227.6 -95,82.11 -156.65,241.41 -156.65,421.3l0.01 0c0,286.06 135.22,350.81 265.27,313.9 -80.59,-27.76 -142.8,-119.91 -142.8,-313.9l-0.01 0zm20.04 -1242.36c47.55,-168.39 -125.9,-729.48 166.81,-791.83 -458.56,-73.7 -236.19,603.81 -289.27,791.83l-0.02 0.03c-28.86,6.02 -59.06,10.4 -89.71,12.95 70.39,6.21 144.93,1.07 212.17,-12.95l0.02 -0.03zm-4.28 1987.74c57.4,5.84 119.12,3.32 184.91,-8.65 125.26,-22.78 193.22,-69.17 246.8,-110.24 -12.58,-18.56 -23.34,-39.18 -32.54,-61.82 -82.68,38.89 -136.5,135.65 -336.72,172.06 -21.25,3.86 -42.06,6.72 -62.44,8.65zm768.19 -2.42c10.1,1.1 20.53,1.94 31.33,2.49 307.94,15.58 412.44,-200.81 383.19,-312.84 -12.44,-47.66 -100.86,-19.33 -160.15,-60.85 -84.13,-58.9 -64.45,-279.57 -64.45,-401.47 0,-486.81 19.68,-1413.91 -1.08,-1843.73 -22.4,-463.86 -402.93,-585.25 -740.07,-567.58 300.78,16.39 597.88,159.36 617.6,567.58 20.76,429.82 1.08,1356.92 1.08,1843.73 0,121.9 -19.68,342.57 64.45,401.47 59.29,41.51 147.71,13.18 160.15,60.85 26.15,100.15 -54.62,283.69 -292.06,310.35zm-4277.21 -391.87c-65.87,-16.62 -116.15,-59.16 -143.68,-105.53 -48.9,-82.36 -34.76,-209.29 -34.76,-319.88l0 -1441.93c0,-238.17 -46.81,-463.99 181.12,-525.28 -34.22,-10.17 -73.07,-12.38 -115.57,-1.82l0.01 0c-235.84,58.55 -188.03,286.54 -188.03,527.1l0 1441.93c0,110.59 -14.14,237.52 34.76,319.88 41.78,70.38 135.96,131.94 257.5,107.44 2.93,-0.59 5.8,-1.24 8.64,-1.91zm759.21 -128.11c25.08,-151.59 11.26,-400.52 11.26,-564.88 0,-342.96 25.78,-1507.16 -31.3,-1691.78 -90.52,-292.76 -365.88,-420.33 -737.37,-403.89 309.06,14.6 534.65,144.3 614.91,403.89 57.08,184.62 31.3,1348.82 31.3,1691.78 0,164.35 13.83,413.28 -11.26,564.88l0 -0c-51.1,308.81 -295.56,499.92 -626.85,520.64 -13.19,0.83 -26.08,1.43 -38.85,1.94 49.89,2.2 103.49,1.68 161.31,-1.94 331.29,-20.73 575.75,-211.83 626.85,-520.64l0 0zm10215.47 -59.46c-17.79,-103.64 -4.23,-1235.23 -4.23,-1441.93 0,-158.48 -33.85,-565.36 42.58,-668.79 37.05,-50.14 85.23,-80.92 135.95,-94.4 -88.78,-23.53 -191.65,4.06 -258.41,94.4 -76.43,103.43 -42.58,510.31 -42.58,668.79 0,206.7 -13.56,1338.29 4.23,1441.93l-0.01 -0c25.63,149.21 175.07,219.66 298.65,187.38 -84.54,-21.3 -158.81,-86.23 -176.19,-187.38l0.01 0zm155.61 588.6c357.85,23.69 744.93,-160.22 783.8,-575.22 31.63,-337.69 5.29,-806.36 5.29,-1158 0,-247.23 30.9,-910.59 -47.75,-1096.26 -115.25,-272.1 -406.64,-382.04 -696.56,-363.65 246.28,15.93 475.13,129.99 574.1,363.65 78.65,185.68 47.75,849.03 47.75,1096.26 0,351.64 26.34,820.31 -5.29,1158 -34.46,367.88 -342.55,554.16 -661.34,575.22zm1655.48 -1798.66c-11.76,-211.12 3.61,-493.03 3.43,-692.7 -0.13,-144.15 -6.43,-238.15 113.73,-281.05 15.48,-5.52 31.03,-9.78 46.53,-12.86 -52.74,-10.81 -111.4,-7.7 -168.99,12.86 -120.17,42.9 -113.86,136.9 -113.73,281.05 0.2,227.89 -19.85,562.91 3.29,777.54l-0.01 -0.01c34.09,-28.18 74.08,-56.08 115.75,-84.84zm4.85 564.32c122.56,-99.27 259.69,-181.1 393.71,-274.98 138.88,-97.29 276.97,-170.83 371.37,-297.58 174.66,-234.55 287.41,-717.48 139.29,-1047.28 -111.67,-248.66 -426.35,-360.99 -725.74,-343.21 258.77,15.33 506.8,128.38 603.28,343.21 148.12,329.81 35.36,812.73 -139.29,1047.28 -94.39,126.75 -232.49,200.3 -371.37,297.58 -134.02,93.88 -271.15,175.71 -393.71,274.98l0 0c-7.01,161.67 -1.19,334.17 -1.43,497.1 -0.24,168.88 22.94,304.26 186.59,326.33 44.85,6.05 83.43,5.4 116.63,-0.86 -158.34,-24.49 -180.99,-158.62 -180.75,-325.47 0.24,-162.93 -5.58,-335.43 1.43,-497.1l-0 0zm165.38 1231.16c329.17,17.37 656.84,-105.84 749.07,-346.92 38.85,-101.57 45.91,-514.52 32.07,-640.8 -15.85,-144.56 -207.37,-168.96 -366.99,-158.44 121.94,9.2 232.64,50.03 244.53,158.44 13.84,126.29 6.78,539.23 -32.07,640.8 -80.74,211.05 -341.94,331.77 -626.6,346.92zm2516.78 -464.03l0 -824.41c-166.91,-299.97 1.98,-179.49 -442.67,-444.97 -99.69,-59.53 -184.93,-105.79 -282.33,-163.65 -115.68,-68.71 -185.32,-93.08 -210.98,-249.33 -11.8,-71.84 -12.36,-372.68 -2.51,-446.31 14.48,-108.31 74.78,-172.01 173.97,-189.37 -8.51,-1.52 -17.39,-2.66 -26.66,-3.4 -156.23,-12.41 -251.09,53.09 -269.76,192.77 -9.85,73.63 -9.29,374.46 2.51,446.31 25.66,156.25 95.31,180.61 210.98,249.33 97.4,57.85 182.63,104.12 282.33,163.65 444.65,265.48 275.76,145 442.67,444.97l0 824.41 0.02 -0.02c-72.75,127.71 -93.66,349.21 -439.63,434.76 -62.3,15.4 -128.09,24.61 -194.79,28.07 107.58,5.48 216.95,-3.27 317.25,-28.07 345.97,-85.55 366.88,-307.05 439.63,-434.76l-0.02 0.02zm-357.39 -1626.95c139.29,10.46 255.51,-5.72 357.39,-119.62l0 -520.83c-19.37,-43.47 -24.85,-97.2 -51.44,-151.46 -117.44,-239.68 -425.77,-320.54 -700.88,-306.11 238.97,12.71 478.2,101.58 578.41,306.11 26.58,54.26 32.07,107.99 51.44,151.46l0 520.83c-70.49,78.8 -147.83,110.82 -234.93,119.62zm-400.1 1686.15c-16.12,-2.9 -33.07,-6.81 -50.95,-11.88 -254.55,-72.15 -110.97,-481.11 -144.37,-683.59 -74.6,-9.5 -148.45,-15.89 -219.06,-9.86 31.92,2.19 64.19,5.73 96.6,9.86 33.4,202.48 -110.18,611.43 144.37,683.59 71.25,20.2 128.05,22.49 173.42,11.88zm-9080.68 156c-2.15,-94.14 5.09,-62.87 -67.61,-97.65 -182.93,-22.11 -150.44,-221.6 -150.42,-387.62l0 -3181.14c0,-127.1 30.95,-398.88 -37.25,-478.55 -50.81,-22.83 -121.91,-27.25 -194.75,-19.33 26.7,3.57 51.23,9.87 72.28,19.33 68.2,79.67 37.25,351.46 37.25,478.55l0 3181.14c-0.01,166.02 -32.51,365.51 150.42,387.62 72.69,34.78 65.46,3.51 67.61,97.65l-0.01 -0c-26.54,140.95 -123.98,227.75 -269.62,245.86 212.87,23.21 358.67,-68.4 392.08,-245.86l0.01 0zm0 0l10.84 -25.15c3.78,-18.46 2.7,-9.48 3.43,-27.66 1.35,-33.43 -3.98,-21.88 -8.48,-40.77l-73.4 -4.06c72.69,34.78 65.46,3.51 67.61,97.65z"/>
  <path class="fil2" d="M2001.86 2661.96c65.65,-46.26 136.44,-119.97 251.76,-149.9 122.86,-31.89 252.44,0.41 296.48,82.45 60.48,112.65 33.25,606.09 33.25,769.78 0,1034.96 118.22,1033.04 -581.47,1033.04l0 -1735.38 -0.01 0zm-493.33 33c12.56,421.3 -18.22,3373.12 8.37,3434.2l38.87 42.85c110.28,10.17 361.4,-0.87 462.86,-27.93 13.42,-82.89 -36.55,-1040.34 -13.02,-1334.74l241.45 6.18c21.38,173.59 168.39,1110.34 221.31,1205.7 78.94,142.23 292.06,240.44 513.25,164.57 256.16,-87.87 227.77,-301.47 211.32,-461.74 -332.15,65.07 -300.82,-97.37 -348.09,-376.6 -29.4,-173.68 -92.57,-481.33 -95.99,-641.48 201.53,-105.97 327.04,-273.1 327.04,-583.55l0 -1397.32c0,-318.37 -110.89,-533.17 -377.65,-605.29 -135.05,-36.51 -297.41,-42.04 -424.62,-0.88 -69.07,22.35 -105.45,36.17 -166.07,70.76 -59.03,33.68 -86.92,68.52 -148.49,95.86 -67.17,-76.52 -51.41,-113.32 -155.27,-163.94 -130.56,-63.64 -521.57,-77.5 -524.86,317.37 187.5,4.32 224.13,73.08 229.59,255.98l0 0.01zm4791.09 390.57c-2.37,109.66 30.57,267.74 34.42,397.69 15.07,509.52 2.73,1152.23 2.73,1679.77 0,214.13 28.81,280.35 -57.96,365.64 -61.59,60.53 -166.12,136.04 -289.89,122.33 -132.94,-14.71 -133.45,-145.68 -133.28,-279.86 0.76,-559.9 0.03,-1119.86 0.03,-1679.77 0,-249.05 33.1,-575.09 -202.71,-646.82 -193.53,-58.87 -483.25,2.11 -489.6,304.93l63.84 17.85c141.01,25.65 158.1,89.11 160.11,264.14l-0.08 1501.83c0,382.28 -34.83,597.66 192.44,823.27 132.75,131.77 414.82,153.49 603.69,70.8 105.12,-46.03 80.43,-64.15 153.41,-95.02 0,149.87 -0.03,299.75 0,449.64 0.03,155.61 17.6,293 -103.29,349.43 -101.64,47.44 -299.87,38.38 -359.94,-42.58 -56.74,-76.47 -18.87,-271.61 -14.13,-383.13 -425.05,-39.47 -516.19,19.62 -467.89,433.78 60.17,515.99 953.54,502.85 1257.48,244.51 183.95,-156.36 156.17,-467.09 156.17,-765.55l0 -2764.92c0,-434.31 83.52,-417.75 -505.55,-367.96l-0 0.01zm4992.97 1614.69c-156.72,-36.73 -426.04,-23.4 -492.88,101.56 -33.71,63.03 -16.41,522.24 -16.41,628.77 0,207.55 -7.89,392.41 113.03,517.55 416.49,431.02 1181.39,261.58 1366.05,-25.78 113.94,-177.29 113.58,-278.95 113.5,-521.5 -0.06,-213.06 0.54,-426.16 0.08,-639.21 -1.06,-494.23 -195.62,-551.05 -503.17,-756.62 -167.51,-111.97 -488.8,-278.04 -548.17,-403.69 -40.46,-85.62 -35.87,-194.26 -35.77,-296.46 0.19,-200.26 -10.26,-428 0.75,-624.77 13.51,-241.25 251.32,-270.45 395.68,-227.86 213.8,63.08 183.18,211 183.18,451.27 0,205.87 -15.61,428.18 -12.97,624.34 126.7,62.08 414.86,18.9 484.13,-84.57 43.95,-65.65 23.27,-500.25 23.27,-614.1 0,-245.41 17.55,-360.5 -103.68,-533.18 -264.18,-376.32 -1118.33,-342.43 -1351.56,13.45 -114.06,174.03 -113.19,279.24 -113.12,519.73 0.06,213.06 -0.55,426.16 -0.09,639.21 1.04,489.39 196.43,554.14 504.92,753.02 445.68,287.31 582.44,292.13 582.19,703.76 -0.12,193.85 14.83,454.21 -1.58,639.89 -26.91,304.47 -501.27,288.52 -586.66,74.63 -43.49,-108.93 -7.62,-807.55 -0.72,-939.44zm2638.49 1482.72c273.62,108.65 554.16,-94.41 488.83,-310.25 -220.31,-25.95 -215.8,-95.23 -215.67,-323.22 0.19,-330.69 13.6,-1908.98 -10.29,-2065.68 -44.55,-292.08 -267.33,-483.09 -566.5,-455.02 -171.1,16.05 -266.16,88.92 -368.9,153.33 -29.89,-300.3 27.43,-1163.2 -14.87,-1352.73 -171.93,-93.19 -360.66,16.61 -511.16,57.59 26.66,267.62 53.96,150.21 53.95,570.56 0,420.07 -12.75,3579.84 6.3,3647.16 36.72,129.75 378.76,50.51 499.25,30.22 6.29,-71.39 -31.22,-281.85 -34.14,-392.18l-3.08 -1308.14c0,-171.7 -35.81,-745.31 34.61,-844.85 56.89,-80.42 160.35,-156.96 300.5,-127.29 147.8,31.29 146.34,126.33 146.08,288.34 -0.93,584.66 -0.03,1169.42 -0.03,1754.09 0,263.72 -26.51,590.06 195.12,678.06l0 0zm-6276.82 -722.66c0,-179.89 61.66,-339.18 156.65,-421.3 51.85,-44.81 286.01,-204.17 343.24,-227.6l1.87 693.5c0,236.46 -501.75,506.43 -501.75,-44.6l-0.01 0zm20.04 -1242.36c53.57,-189.73 -173.49,-878.06 301.85,-789.76 178.59,33.17 179.9,193.9 179.85,382.09 -0.05,182.99 0,365.96 0,548.94 -106.89,57.9 -206.02,125.78 -316.24,188.07 -325.85,184.18 -642.36,345.07 -679.54,838.22 -37.82,501.67 224.62,897 694.71,811.53 200.23,-36.41 254.04,-133.17 336.72,-172.06 44.92,110.49 126.76,173.12 277.89,180.77 307.94,15.58 412.44,-200.81 383.19,-312.84 -12.44,-47.66 -100.86,-19.33 -160.15,-60.85 -84.13,-58.9 -64.45,-279.57 -64.45,-401.47 0,-486.81 19.68,-1413.91 -1.08,-1843.73 -33.78,-699.35 -881.64,-620.38 -1167.44,-459.74 -250.45,140.77 -252.54,306.21 -252.54,668.31 0,156.42 -35.21,321.4 75.46,384.98 101.81,58.48 260.63,64.91 391.74,37.57l0.02 -0.03zm-3503.72 -801c117.73,-29.24 207.43,39.41 248.28,104.19 56.86,90.18 40.96,204.51 40.95,318.86l0 1441.93c0,227.01 34.65,487.1 -184.98,531.38 -121.55,24.5 -215.72,-37.06 -257.5,-107.44 -48.9,-82.36 -34.76,-209.29 -34.76,-319.88l0 -1441.93c0,-240.57 -47.81,-468.55 188.03,-527.1l-0.01 0zm749.63 2266.34c25.08,-151.59 11.26,-400.52 11.26,-564.88 0,-342.96 25.78,-1507.16 -31.3,-1691.78 -92.07,-297.78 -375.36,-424.66 -756.55,-402.92 -332.82,18.98 -572.74,211.9 -622.91,519.76 -22.33,137.08 -10.3,940.57 -10.3,1143.85 0,792.59 -187.81,1577.35 782.95,1516.61 331.29,-20.73 575.75,-211.83 626.85,-520.64l0 0zm10215.47 -59.46c-17.79,-103.64 -4.23,-1235.23 -4.23,-1441.93 0,-158.48 -33.85,-565.36 42.58,-668.79 128.13,-173.39 389.31,-115.74 428.49,91.15 20.23,106.86 6.18,1232.43 6.18,1439.82 0,167.58 31.49,550.79 -44.54,672.09 -107.97,172.28 -392.22,118.82 -428.49,-92.35l0.01 0zm108.99 -2594.5c-691.7,108.36 -585.36,641.42 -585.36,1137.71 0,352.19 -29.85,1479.47 43.65,1675.54 201.99,538.84 1305.08,510.46 1372.13,-205.37 31.63,-337.69 5.29,-806.36 5.29,-1158 0,-247.23 30.9,-910.59 -47.75,-1096.26 -127.39,-300.77 -469.99,-403.43 -787.95,-353.61l-0 -0zm1708.82 1469.3c-23.14,-214.64 -3.09,-549.66 -3.29,-777.54 -0.13,-144.15 -6.43,-238.15 113.73,-281.05 113.32,-40.45 230.78,-13.37 299.16,54.42 131.47,130.32 75.73,475.49 -2.63,643.43 -72.51,155.42 -280.46,256.14 -406.98,360.73l0.01 0.01zm-1.87 479.48c122.56,-99.27 259.69,-181.1 393.71,-274.98 138.88,-97.29 276.98,-170.83 371.37,-297.58 174.66,-234.55 287.41,-717.48 139.29,-1047.28 -208.51,-464.28 -1124.77,-453.52 -1327.74,-7.37 -72.78,159.98 -50.64,420.3 -50.64,608.04 0,441 0,882.01 0,1323 0,366.04 -55.81,777.19 430.61,896.78 387.27,95.21 845.92,-23.81 957.84,-316.36 38.85,-101.57 45.91,-514.52 32.07,-640.8 -19.84,-180.92 -314.85,-173.65 -478.11,-145.23 20.51,300.07 118.42,779.36 -283.25,725.21 -163.65,-22.06 -186.83,-157.44 -186.59,-326.33 0.24,-162.93 -5.58,-335.43 1.43,-497.1l-0 0zm2682.15 767.14l0 -824.41c-166.91,-299.97 1.98,-179.49 -442.67,-444.97 -99.69,-59.53 -184.93,-105.79 -282.33,-163.65 -115.68,-68.71 -185.32,-93.08 -210.98,-249.33 -11.8,-71.84 -12.36,-372.68 -2.51,-446.31 18.68,-139.68 113.53,-205.18 269.76,-192.77 291.02,23.1 200.81,439.15 193.04,681.55 193.66,25.01 346.24,38.03 475.69,-106.69l0 -520.83c-19.37,-43.47 -24.85,-97.2 -51.44,-151.46 -181.64,-370.71 -819.99,-361.59 -1085.69,-207.35 -173.82,100.9 -277.37,282.67 -276.92,572.33 1.29,818.8 -14.41,732.34 602.49,1108.95 230.98,141.01 351.91,154.62 351.4,511.36 -0.22,156.25 46.94,592.94 -348.3,480.9 -254.55,-72.15 -110.97,-481.11 -144.37,-683.59 -129.07,-16.43 -255.87,-23.57 -367.55,26.87 -132.77,59.96 -101.31,161.45 -101.31,324.46 0,236.38 -29.01,490.21 235.29,636.44 194.64,107.69 498.51,144.62 746.77,83.23 345.97,-85.55 366.88,-307.05 439.63,-434.76l-0.02 0.02zm-9838.17 215.21c-2.15,-94.14 5.09,-62.87 -67.61,-97.65 -182.93,-22.11 -150.44,-221.6 -150.42,-387.62l0 -3181.14c0,-127.1 30.95,-398.88 -37.25,-478.55 -133.98,-60.21 -409,7.61 -485.04,92.06 88.31,334.53 53.88,888.42 53.88,1263.54 0,441 0,882 0,1323 0,429.09 -18.24,899.58 2.6,1323.59 10.45,212.61 80.73,361.75 279.57,387.2 219.48,28.09 370.2,-63.61 404.25,-244.43l0.01 0zm0 0l10.84 -25.15c3.78,-18.46 2.7,-9.48 3.43,-27.66 1.35,-33.43 -3.98,-21.88 -8.48,-40.77l-73.4 -4.06c72.69,34.78 65.46,3.51 67.61,97.65z"/>
  <path class="fil2" d="M711.8 1679.48c173.89,376.74 260.85,565.11 260.85,565.11 -275.85,-389.42 -549.93,-776.92 -822.22,-1162.49 -42.67,-13.31 -64,-19.95 -64,-19.95 -12.69,-90.04 -19.04,-135.06 -19.04,-135.06 69.52,57.93 104.29,86.89 104.29,86.89 0,0 -1.66,20.85 -4.98,62.54 371.76,350.43 652.03,560.59 840.79,630.45 104.92,38.24 159.52,-10.43 163.78,-146.02 14.13,-224.73 -44.83,-446.22 -176.86,-664.46 -68.52,-25.87 -102.78,-38.8 -102.78,-38.8 -23.74,-147.81 -35.6,-221.71 -35.6,-221.71 117.4,102.69 176.1,154.02 176.1,154.02 -14.53,68.29 -21.8,102.44 -21.8,102.44 144.46,223.75 320.49,409.28 528.09,556.61 121.21,92.82 205.22,70.22 252.03,-67.82 69.81,-211.03 114.46,-438.5 133.96,-682.41 -103.96,-98.34 -155.95,-147.49 -155.95,-147.49 0,0 46.85,-173.1 140.54,-519.32 0,0 75.27,163.14 225.82,489.39 0,0 -41.51,57.26 -124.53,171.78 48.29,176.19 117.6,371.62 207.98,586.32 101.39,194.92 208.77,214.15 322.15,57.66 160.89,-176.39 294.22,-378.84 400,-607.34 -24.58,-75.25 -36.89,-112.87 -36.89,-112.87 0,0 46.85,-56.35 140.55,-169.04 3.22,153.43 4.82,230.13 4.82,230.13 -63.86,38.65 -95.79,57.98 -95.79,57.98 -86.98,226.09 -106.44,454.66 -58.4,685.7 27.32,132.16 99.55,161.81 216.65,88.97 206.68,-153.3 435.92,-400.9 687.73,-742.78 -10.67,-43.92 -15.99,-65.87 -15.99,-65.87 0,0 32.55,-34.25 97.66,-102.74 -5.85,94.15 -8.78,141.24 -8.78,141.24 -38.99,22.45 -58.48,33.67 -58.48,33.67 -386.83,820.53 -580.25,1230.78 -580.25,1230.78 91.29,-370.25 136.93,-555.36 136.93,-555.36 -177.69,169.24 -328.19,234.96 -451.51,197.16 -93,-43.75 -146.63,-173.59 -160.9,-389.53 -157.76,234.97 -298.97,334.72 -423.6,299.23 -154.14,-65.42 -266.98,-249.13 -338.48,-551.13 -43.22,359.74 -134.29,563.19 -273.22,610.36 -111.6,27.73 -257,-48.31 -436.2,-228.15 12.9,246.18 -25.73,386.65 -115.87,421.39 -114.77,54.11 -267.64,10.95 -458.59,-129.48l-0 0zm2381.49 -479.18c-9.52,175 -14.27,262.51 -14.27,262.51 0,0 -21.1,11.07 -63.29,33.2 0,0 1.5,-27.69 4.5,-83.08 0,0 -10.57,21.86 -31.72,65.58 0,0 -7.91,-27.63 -23.72,-82.86 0,0 42.84,-65.12 128.51,-195.35l-0.01 0zm-804.03 69.18c42.13,61.5 63.2,92.26 63.2,92.26 0,0 11.31,-55.63 33.91,-166.89 0,0 18.21,51.02 54.61,153.05 0,0 21.51,-20.49 64.51,-61.49 0,0 -51.26,-141.63 -153.78,-424.9 0,0 -20.82,135.99 -62.46,407.99l0.02 -0.01zm-595.91 149.68c33.65,-70.25 50.47,-105.37 50.47,-105.37 0,0 -45.96,-124.71 -137.89,-374.15 0,0 -23.84,143.88 -71.52,431.64 45.41,29.46 68.13,44.19 68.13,44.19 24.87,-101.92 37.31,-152.88 37.31,-152.88 35.67,104.39 53.51,156.58 53.51,156.58l-0.01 -0zm-644.72 167.67c32.86,34.28 49.29,51.42 49.29,51.42 6.9,-53.42 10.35,-80.13 10.35,-80.13 0,0 -56.34,-57.74 -169,-173.22 0,0 20.23,84.41 60.71,253.21 45.6,12.72 68.4,19.08 68.4,19.08 -13.16,-46.91 -19.73,-70.36 -19.73,-70.36l-0.01 0z"/>
 </g>
</svg>
